<svg width="24" height="24" viewBox="0 0 24 24" fill="none" xmlns="http://www.w3.org/2000/svg">
<path d="M5.62402 4.63867C5.36812 4.63867 5.13182 4.75566 4.93652 4.95166C3.07362 6.81366 1.99902 9.32568 1.99902 12.0137C1.99902 14.6847 3.06242 17.1847 4.90522 19.0447C5.29402 19.4377 5.91922 19.4337 6.31152 19.0447C6.70382 18.6567 6.70023 18.0307 6.31152 17.6387C4.83612 16.1497 3.99902 14.1527 3.99902 12.0137C3.99902 9.86168 4.85122 7.84867 6.34282 6.35767C6.73332 5.96667 6.73322 5.34166 6.34282 4.95166C6.14752 4.75566 5.87992 4.63867 5.62402 4.63867ZM18.3428 4.63867C18.0868 4.63867 17.8501 4.72468 17.6552 4.91968C17.2655 5.31168 17.264 5.96767 17.6552 6.35767C19.1532 7.84967 19.999 9.85668 19.999 12.0137C19.999 14.1667 19.148 16.1787 17.6552 17.6697C17.2646 18.0607 17.2649 18.6857 17.6552 19.0757C18.0456 19.4667 18.6708 19.4667 19.0615 19.0757C20.926 17.2137 21.999 14.7027 21.999 12.0137C21.999 9.31968 20.9325 6.78368 19.0615 4.91968C18.8659 4.72468 18.5987 4.63867 18.3428 4.63867ZM8.49903 7.45166C8.24313 7.44966 7.97663 7.53867 7.78023 7.73267C6.64793 8.85167 5.99902 10.3897 5.99902 12.0137C5.99902 13.6007 6.63092 15.0887 7.71782 16.2017C8.10363 16.5967 8.72893 16.6187 9.12403 16.2327C9.51913 15.8467 9.50993 15.1897 9.12403 14.7947C8.39843 14.0517 7.99903 13.0737 7.99903 12.0137C7.99903 10.9297 8.43053 9.91769 9.18653 9.16969C9.57933 8.78168 9.57473 8.15668 9.18653 7.76368C8.99243 7.56768 8.75493 7.45266 8.49903 7.45166ZM15.499 7.45166C15.2431 7.45366 14.9737 7.53567 14.7802 7.73267C14.3933 8.12667 14.4175 8.78268 14.8115 9.16969C15.5731 9.91769 15.999 10.9247 15.999 12.0137C15.999 13.1007 15.5711 14.1097 14.8115 14.8577C14.4179 15.2447 14.3928 15.8697 14.7802 16.2637C15.1677 16.6577 15.8242 16.6827 16.2178 16.2947C17.3555 15.1747 17.999 13.6427 17.999 12.0137C17.999 10.3827 17.3585 8.85267 16.2178 7.73267C16.0207 7.53867 15.7549 7.44866 15.499 7.45166Z" fill="#8b5cf6"/>
<path d="M14 12C14 13.1046 13.1046 14 12 14C10.8954 14 10 13.1046 10 12C10 10.8954 10.8954 10 12 10C13.1046 10 14 10.8954 14 12Z" fill="#7e22ce"/>
</svg>
