<svg width="24" height="24" viewBox="0 0 24 24" fill="none" xmlns="http://www.w3.org/2000/svg">
<path fill-rule="evenodd" clip-rule="evenodd" d="M3 7C3 4.791 4.7909 3 7 3H17C19.209 3 21 4.791 21 7V17C21 19.209 19.209 21 17 21H7C4.7909 21 3 19.209 3 17V7ZM17 5H7C5.8954 5 5 5.895 5 7V17C5 18.105 5.8954 19 7 19H17C18.105 19 19 18.105 19 17V7C19 5.895 18.105 5 17 5ZM8 6.99998C7.44772 6.99998 7 7.4477 7 7.99998C7 8.55227 7.44772 8.99998 8 8.99998H16C16.5523 8.99998 17 8.55227 17 7.99998C17 7.4477 16.5523 6.99998 16 6.99998H8Z" fill="#0ea5e9"/>
<path fill-rule="evenodd" clip-rule="evenodd" d="M8 2C8.55229 2 9 2.44772 9 3V4C9 4.55228 8.55229 5 8 5C7.44771 5 7 4.55228 7 4V3C7 2.44772 7.44771 2 8 2ZM16 2C16.5523 2 17 2.44772 17 3V4C17 4.55228 16.5523 5 16 5C15.4477 5 15 4.55228 15 4V3C15 2.44772 15.4477 2 16 2ZM15 11C14.4477 11 14 11.4477 14 12V13C14 13.5523 14.4477 14 15 14H16C16.5523 14 17 13.5523 17 13V12C17 11.4477 16.5523 11 16 11H15Z" fill="#0369a1"/>
</svg>
